<svg xmlns="http://www.w3.org/2000/svg" width="120" height="52" fill="none" viewBox="0 0 120 52">
    <path fill="#D1D4D7" fill-rule="evenodd" d="M113.373 32.807H118v-.895h-3.555v-2.36h2.742v-.893h-2.742V26.36h3.371v-.895h-4.443v7.341zm-7.835 0h1.072V29.44h1.138l2.038 3.367h1.213l-2.362-3.836v-.02l2.221-3.484h-1.181l-1.929 3.088h-1.138v-3.087h-1.072v7.34zm-4.455 0h1.074v-7.34h-1.074v7.34zm-6.957-3.816v-2.63h1.235c.596 0 .846.062 1.051.166.39.208.608.592.608 1.133 0 .822-.52 1.33-1.355 1.33h-1.54zm-1.074 3.816h1.074v-2.922h1.636l1.615 2.922h1.214l-1.626-2.849c-.14-.239-.228-.333-.228-.333v-.02c.835-.26 1.377-1.05 1.377-1.987 0-.966-.51-1.704-1.29-1.985-.292-.104-.628-.167-1.43-.167h-2.342v7.341zm-5.656 0h1.073v-6.446h2.622v-.895h-6.318v.895h2.623v6.446zm-9.44-.842s.91.967 2.536.967c1.518 0 2.428-.936 2.428-2.07 0-2.38-3.706-1.975-3.706-3.493 0-.582.575-1.07 1.387-1.07.975 0 1.68.634 1.68.634l.487-.853s-.747-.738-2.167-.738c-1.442 0-2.471.904-2.471 2.048 0 2.257 3.707 1.913 3.707 3.504 0 .697-.608 1.081-1.323 1.081-1.138 0-1.95-.79-1.95-.79l-.607.78h-.001zm-7.921.197v-6.02h1.636c1.864 0 3.121 1.06 3.121 3.006 0 1.954-1.246 3.014-3.121 3.014h-1.636zm-.748.645h2.46c2.287 0 3.826-1.331 3.826-3.66 0-2.308-1.54-3.65-3.826-3.65h-2.46v7.31zm-7.434-6.239s.119.625.249 1.092l1.452 5.147h.9l2.026-7.31h-.78l-1.528 5.677c-.097.374-.174.78-.174.78h-.02c-.012 0-.066-.406-.175-.78L62.2 25.498h-.716l-1.604 5.676c-.108.374-.162.78-.173.78h-.022s-.076-.406-.174-.78l-1.473-5.676h-.78l1.971 7.31h.9l1.453-5.148c.13-.467.249-1.092.249-1.092h.022zm-13.2 2.537c0-1.746 1.376-3.067 3.099-3.067 1.712 0 3.1 1.321 3.1 3.067 0 1.789-1.387 3.161-3.1 3.161-1.723 0-3.1-1.372-3.1-3.16zm-.781 0c0 2.142 1.724 3.827 3.88 3.827 2.157 0 3.88-1.685 3.88-3.827 0-2.1-1.723-3.733-3.88-3.733s-3.88 1.634-3.88 3.733zm-6.404-.02v-2.942h1.538c.586 0 .857.061 1.084.176.445.229.694.676.694 1.279 0 .915-.585 1.487-1.507 1.487h-1.81zm-.749 3.722h.748V29.73h1.919l1.723 3.078h.856l-1.658-2.942c-.12-.198-.195-.292-.195-.292v-.02c.855-.23 1.441-.989 1.441-1.976 0-.884-.434-1.58-1.148-1.882-.304-.125-.65-.197-1.43-.197h-2.256v7.31zm-9.699-3.702c0 2.132 1.604 3.827 3.858 3.827 1.876 0 2.916-1.134 2.916-1.134l-.434-.51s-.932.978-2.47.978c-1.81 0-3.09-1.424-3.09-3.171 0-1.725 1.28-3.056 3.067-3.056 1.431 0 2.32.81 2.32.81l.4-.53s-.92-.947-2.74-.947c-2.18 0-3.827 1.613-3.827 3.733zm-3.502 2.836c-.545-.055-1.513-.19-2.723.421s-1.686.638-2.28.575c.175.32.529.758 1.64.837 1.113.078 1.645.113 1.06 1.5.013-.419-.085-1.23-1.19-1.088-1.103.143-1.361 1.138-.177 1.635-.385.077-1.2.123-1.784-1.404-.404.176-1.027.529-2.156-.345.393.142.88.151.88.151-1.002-.479-1.96-1.369-2.572-2.21.486.362 1.022.723 1.565.79-.641-.782-2.124-2.349-3.939-3.958 1.167.762 2.575 1.968 4.878 1.698 2.304-.272 3.852-.8 6.798 1.398zm-9.924-.176c-1.485-.608-1.804-.73-3.713-1.189-1.91-.458-3.787-1.411-5.043-2.899.885.612 2.693 1.844 4.55 1.712-.282-.39-.803-.695-1.425-1.001.703.159 2.827.671 5.631 3.376zm-3.503-5.256c-.373-1.116-1.047-2.545-4.242-4.668C8.293 20.77 6.009 19.426 3 16c.215.924 1.166 3.325 5.955 6.443 1.573 1.12 3.604 1.81 5.136 4.066z" clip-rule="evenodd"/>
    <path fill="#D1D4D7" fill-rule="evenodd" d="M14.675 27.677c-.4-.915-1.202-2.089-4.348-3.765-1.452-.807-3.93-2.048-6.159-4.409.202.853 1.237 2.725 5.689 5.062 1.234.675 3.318 1.307 4.818 3.112zm11.602 2.326c1.156.174 1.098.42 1.11.842a4.257 4.257 0 0 0-1.11-.842zm-8.796-7.161c-6.095-1.746-8.52-3.95-10.394-6.258.855 2.656 2.897 3.606 5.079 5.389 2.181 1.783 2.306 2.741 2.949 3.795 1.43 2.347 1.66 2.734 3.08 3.759 1.674 1.112 3.7.36 5.92.708 2.223.35 4.059 2.044 4.458 2.697.466-.832-.647-2.03-.947-2.332.16-1.09-2.413-1.568-3.389-1.941-.19-.073-.663-.183-.253-1.161.554-1.35 1.13-2.524-6.504-4.656" clip-rule="evenodd"/>
</svg>
