<svg xmlns="http://www.w3.org/2000/svg" width="120" height="52" fill="none" viewBox="0 0 120 52">
    <path fill="#D1D4D7" d="M53.298 27.61c0 4.226-3.305 7.34-7.362 7.34-4.056 0-7.362-3.114-7.362-7.34 0-4.255 3.306-7.338 7.362-7.338 4.057 0 7.362 3.083 7.362 7.338zm-3.222 0c0-2.64-1.916-4.447-4.14-4.447-2.223 0-4.139 1.807-4.139 4.447 0 2.614 1.916 4.447 4.14 4.447 2.223 0 4.139-1.836 4.139-4.447zM69.181 27.61c0 4.226-3.305 7.34-7.362 7.34-4.056 0-7.362-3.114-7.362-7.34 0-4.251 3.306-7.338 7.362-7.338 4.057 0 7.362 3.083 7.362 7.338zm-3.222 0c0-2.64-1.916-4.447-4.14-4.447-2.223 0-4.14 1.807-4.14 4.447 0 2.614 1.917 4.447 4.14 4.447 2.224 0 4.14-1.836 4.14-4.447zM84.401 20.715V33.89c0 5.42-3.196 7.633-6.975 7.633-3.557 0-5.698-2.379-6.505-4.325l2.806-1.168c.5 1.195 1.724 2.605 3.696 2.605 2.419 0 3.918-1.493 3.918-4.302v-1.056h-.113c-.721.89-2.111 1.668-3.865 1.668-3.67 0-7.031-3.196-7.031-7.31 0-4.142 3.362-7.364 7.031-7.364 1.75 0 3.14.777 3.865 1.64h.113v-1.194h3.06v-.003zm-2.832 6.922c0-2.584-1.724-4.474-3.918-4.474-2.223 0-4.086 1.89-4.086 4.474 0 2.558 1.863 4.42 4.086 4.42 2.194 0 3.918-1.862 3.918-4.42zM89.448 12.992V34.5h-3.143V12.992h3.143zM101.697 30.026l2.501 1.668c-.807 1.194-2.753 3.253-6.114 3.253-4.17 0-7.283-3.223-7.283-7.34 0-4.364 3.14-7.338 6.922-7.338 3.808 0 5.671 3.03 6.28 4.668l.334.834-9.81 4.063c.75 1.473 1.919 2.224 3.556 2.224 1.642 0 2.78-.808 3.614-2.032zm-7.7-2.64l6.558-2.723c-.36-.917-1.446-1.555-2.723-1.555-1.638 0-3.918 1.445-3.835 4.278zM26.677 25.702v-3.114h10.492c.103.543.156 1.185.156 1.88 0 2.335-.639 5.224-2.697 7.282-2.002 2.085-4.56 3.196-7.948 3.196-6.28 0-11.56-5.115-11.56-11.395 0-6.28 5.28-11.396 11.56-11.396 3.474 0 5.95 1.364 7.809 3.14l-2.197 2.197c-1.334-1.25-3.14-2.223-5.615-2.223-4.586 0-8.173 3.696-8.173 8.282s3.587 8.282 8.173 8.282c2.974 0 4.669-1.195 5.754-2.28.88-.88 1.46-2.137 1.687-3.855l-7.441.004z"/>
</svg>