<svg xmlns="http://www.w3.org/2000/svg" width="120" height="52" fill="none" viewBox="0 0 120 52">
    <g clip-path="url(#a)">
        <path fill="#D1D4D7" fill-rule="evenodd" d="M78.218 19.465a6.318 6.318 0 1 0 0 12.635 6.318 6.318 0 0 0 0-12.636zm-11.633 1.013C68.6 16.066 73.05 13 78.218 13c7.059 0 12.781 5.723 12.781 12.782 0 7.06-5.722 12.782-12.781 12.782-5.423 0-10.057-3.377-11.914-8.142.009.162.013.33.013.502 0 7.64-6.61 7.346-6.61 7.346h-11.02V13.264h10.578c1.91 0 7.346 1.044 7.346 6.392 0 .287-.009.56-.026.822zm-1 3.343c-.74 1.092-1.76 1.55-2.647 1.711-.302.057-.225.084.055.186.53.19 1.79.646 2.597 2.06a12.885 12.885 0 0 1-.005-3.957zm12.632 7.103a5.142 5.142 0 1 0 0-10.284 5.142 5.142 0 0 0 0 10.284zm-23.36-7.787v-3.775h3.674S60 19.347 60 21.154s-1.47 1.983-1.47 1.983h-3.672zm0 9.256v-3.82h3.674s1.469 0 1.469 1.764c0 1.91-1.47 2.056-1.47 2.056h-3.672zM29 38.27V13.264h6.905v9.433h4.408v-9.432h6.905V38.27h-6.905v-9.256h-4.408v9.256H29z" clip-rule="evenodd"/>
    </g>
    <defs>
        <clipPath id="a">
            <path fill="#fff" d="M0 0h62v25.564H0z" transform="translate(29 13)"/>
        </clipPath>
    </defs>
</svg>
