<svg xmlns="http://www.w3.org/2000/svg" width="120" height="52" fill="none" viewBox="0 0 120 52">
    <path fill="#D1D4D7" d="M30.497 36.933c-1.258.22-2.538.285-3.861.46L22.596 25.68v12.215c-1.258.131-2.405.306-3.597.48V16h3.354l4.59 12.696V16h3.553v20.933zm6.952-12.739c1.368 0 3.464-.065 4.722-.065v3.496c-1.567 0-3.398 0-4.722.065v5.201c2.074-.131 4.148-.306 6.245-.371v3.364l-9.776.765V16h9.776v3.496h-6.245v4.698zm19.375-4.698h-3.663V35.58c-1.192 0-2.384 0-3.53.043V19.496h-3.664V16h10.857v3.496zm5.738 4.458h4.832v3.496h-4.833v7.932h-3.464V16h9.864v3.496h-6.4v4.458zm12.137 8.369c2.008.044 4.038.197 6.002.306v3.452c-3.155-.197-6.311-.393-9.533-.459V16h3.53v16.323zm8.981 3.999c1.126.065 2.317.13 3.465.262V16H83.68v20.322zM102.615 16l-4.48 10.642 4.48 11.734c-1.325-.175-2.649-.415-3.973-.634l-2.537-6.468-2.582 5.944c-1.28-.219-2.516-.285-3.796-.46l4.546-10.248L90.168 16h3.796l2.317 5.878L98.753 16h3.862z"/>
</svg>
