<svg xmlns="http://www.w3.org/2000/svg" width="120" height="52" fill="none" viewBox="0 0 120 52">
    <path fill="#D1D4D7" d="M92.947 29.784h-.076L89.616 18.46h-5.25v14.274h3.478l-.196-11.713h.076l3.495 11.713h5.038V18.461h-3.501l.191 11.323zm-66.8-11.323l-2.62 14.424h3.823l1.936-13.093h.081l1.886 13.094h3.8l-2.608-14.425h-6.298zm21.38.001L45.78 29.491h-.08l-1.738-11.029h-5.77l-.314 14.423h3.538l.089-12.97h.08l2.363 12.97h3.588L49.9 19.92l.079-.005.092 12.971h3.539l-.313-14.423h-5.77zm-32.765 3.71a1.875 1.875 0 0 1-.015-.753c.102-.464.408-.972 1.294-.972.83 0 1.313.524 1.313 1.306v.892h3.533v-1.007c0-3.147-2.768-3.638-4.773-3.638-2.514 0-4.568.852-4.946 3.205a5.036 5.036 0 0 0 .034 1.942c.615 2.948 5.64 3.802 6.37 5.666.137.348.093.799.026 1.071-.115.472-.433.963-1.377.963-.884 0-1.423-.516-1.423-1.303l-.002-1.4h-3.794L11 29.259c0 3.218 2.483 4.185 5.142 4.185 2.564 0 4.665-.884 5.005-3.292.172-1.248.045-2.067-.016-2.373-.599-3.021-5.965-3.915-6.37-5.608zm46.032.033c-.07-.288-.05-.58-.017-.74.099-.46.402-.962 1.28-.962.82 0 1.302.516 1.302 1.288v.884h3.495v-.997c0-3.108-2.743-3.598-4.72-3.598-2.494 0-4.53.833-4.9 3.171-.103.63-.12 1.205.032 1.924.61 2.918 5.586 3.765 6.31 5.61.132.347.091.79.027 1.06-.115.476-.433.952-1.365.952-.879 0-1.408-.509-1.408-1.287l-.003-1.39h-3.76v1.106c0 3.185 2.461 4.14 5.095 4.14 2.531 0 4.615-.875 4.949-3.258.17-1.232.044-2.044-.015-2.348-.594-2.99-5.909-3.878-6.302-5.555zm16.045 6.923a2.92 2.92 0 0 1-.033.55c-.07.36-.373 1.038-1.356 1.038-.98 0-1.287-.679-1.357-1.038a3.042 3.042 0 0 1-.036-.55V18.46h-3.576v10.339c-.005.267.02.809.033.953.243 2.689 2.333 3.557 4.935 3.557 2.599 0 4.688-.868 4.939-3.557.012-.144.04-.687.036-.953V18.459h-3.585v10.67zm28.153-4.352v2.112h1.449v2.092c.004.182-.003.383-.033.548-.063.388-.424 1.044-1.444 1.044-1.024 0-1.383-.656-1.449-1.044a3.052 3.052 0 0 1-.032-.548v-6.6c0-.234.015-.49.058-.676.075-.356.38-1.047 1.408-1.047 1.083 0 1.35.73 1.415 1.047.041.2.044.545.044.543v.813h3.566v-.482c-.001 0 .013-.493-.029-.943-.262-2.713-2.46-3.567-4.966-3.567-2.507 0-4.654.861-4.965 3.567a9.44 9.44 0 0 0-.062.943l-.001 6.069c.001.272.01.472.049.953.233 2.626 2.472 3.567 4.976 3.567 2.506 0 4.745-.941 4.979-3.567.039-.481.044-.682.045-.953v-3.871h-5.008z"/>
</svg>
