<svg xmlns="http://www.w3.org/2000/svg" width="120" height="52" fill="none" viewBox="0 0 120 52">
    <path fill="#D1D4D7" d="M82.513 23.429H88v5.487h-5.487V23.43zm-16.462 0h5.487v5.487H66.05V23.43zm-16.462 0h5.488v5.487h-5.488V23.43zm-3.493 8.804c0 1.741.254 2.871.764 3.392.431.444 1.166.717 2.196.819.305.026.829.038 1.568.038v1.525H37.402v-1.525c1.063 0 1.845-.05 2.351-.153 1.025-.215 1.67-.812 1.935-1.79.139-.508.21-1.277.21-2.306V12.297c-2.244.063-3.998.806-5.265 2.23-1.203 1.362-1.937 3.446-2.204 6.255L33 20.535 33.266 11h21.495l.267 9.535-1.431.247c-.266-2.809-1.006-4.893-2.214-6.255-1.273-1.424-3.036-2.167-5.287-2.23v19.936zm-13.07-8.804h5.487v5.487h-5.487V23.43z"/>
</svg>
