<svg xmlns="http://www.w3.org/2000/svg" width="120" height="52" fill="none" viewBox="0 0 120 52">
    <path fill="#D1D4D7" d="M61.897 25.254c.587 0 1.116-.094 1.584-.282.47-.188.869-.45 1.198-.786.33-.336.582-.735.757-1.198.176-.462.263-.966.263-1.511v-5.488h-1.704v5.488c0 .35-.048.667-.143.95a2.02 2.02 0 0 1-.412.723c-.18.198-.399.353-.659.463-.26.11-.554.164-.884.164-.33 0-.624-.055-.884-.165a1.794 1.794 0 0 1-.655-.465 2.08 2.08 0 0 1-.41-.726 2.976 2.976 0 0 1-.142-.95v-5.482h-1.704v5.488c0 .545.087 1.049.263 1.511.175.463.426.862.754 1.198.327.336.725.598 1.194.786.469.188.997.282 1.584.282zm7.548-.102v-5.627a7.766 7.766 0 0 0-.038-.766l4.79 6.102c.085.11.171.186.26.228.089.042.2.063.336.063h.88V15.99h-1.501v5.57c0 .123.003.255.01.396.006.142.017.287.034.435l-4.81-6.128a1.317 1.317 0 0 0-.126-.143.457.457 0 0 0-.118-.082.444.444 0 0 0-.136-.038 1.564 1.564 0 0 0-.19-.01h-.893v9.163h1.502zm10.506 0V15.99H78.24v9.163h1.711zm6.267 0V17.39h2.757v-1.4h-7.23v1.4h2.768v7.762h1.705zm10.126 0V23.79h-4.061v-2.592h3.2v-1.312h-3.2v-2.54h4.061v-1.357h-5.779v9.163h5.78zm5.482 0c.693 0 1.324-.112 1.894-.335a4.214 4.214 0 0 0 1.464-.945 4.23 4.23 0 0 0 .944-1.45 4.953 4.953 0 0 0 .336-1.851c0-.672-.112-1.289-.336-1.85a4.197 4.197 0 0 0-.944-1.448 4.274 4.274 0 0 0-1.464-.945 5.096 5.096 0 0 0-1.894-.339h-3.498v9.163h3.498zm0-1.356h-1.781v-6.45h1.781c.448 0 .85.073 1.207.221.357.148.66.36.909.637s.442.615.577 1.014c.135.4.203.85.203 1.353 0 .502-.068.953-.203 1.353-.135.399-.328.737-.577 1.014a2.483 2.483 0 0 1-.909.637 3.128 3.128 0 0 1-1.207.221zM59.711 39.672v-5.627a7.766 7.766 0 0 0-.038-.767l4.79 6.102c.085.11.172.186.26.229.09.042.201.063.336.063h.881v-9.163h-1.502v5.57c0 .123.004.255.01.396.006.142.018.286.035.434l-4.81-6.128a1.328 1.328 0 0 0-.127-.142.458.458 0 0 0-.117-.082.444.444 0 0 0-.136-.038 1.564 1.564 0 0 0-.19-.01h-.894v9.163h1.502zm9.024 0a.6.6 0 0 0 .564-.386l.684-1.87h3.796l.684 1.87a.576.576 0 0 0 .57.386h1.319l-3.6-9.163H71.01l-3.6 9.163h1.325zm4.607-3.46H70.42l1.116-3.035c.055-.14.11-.302.168-.488.057-.186.115-.387.174-.602a11.773 11.773 0 0 0 .348 1.077l1.116 3.048zm7.23 3.46v-7.763h2.757v-1.4h-7.23v1.4h2.768v7.763h1.705zm6.267 0v-9.163h-1.71v9.163h1.71zm6.717.101c.693 0 1.325-.117 1.895-.351a4.276 4.276 0 0 0 1.464-.98c.405-.418.72-.913.944-1.485a5.079 5.079 0 0 0 .336-1.867c0-.671-.112-1.293-.336-1.866a4.386 4.386 0 0 0-.944-1.482 4.338 4.338 0 0 0-1.464-.98 4.9 4.9 0 0 0-1.895-.354c-.693 0-1.325.117-1.898.351a4.302 4.302 0 0 0-1.47.98 4.397 4.397 0 0 0-.947 1.485 5.079 5.079 0 0 0-.336 1.867c0 .671.112 1.293.336 1.866.224.572.54 1.067.947 1.486.408.418.898.744 1.47.979a4.961 4.961 0 0 0 1.898.351zm0-1.457c-.448 0-.851-.074-1.21-.222a2.508 2.508 0 0 1-.916-.637 2.84 2.84 0 0 1-.58-1.014c-.135-.399-.202-.85-.202-1.352 0-.503.067-.954.202-1.353.136-.4.329-.739.58-1.017.251-.28.557-.493.916-.64.359-.148.762-.222 1.21-.222.448 0 .85.074 1.207.221.357.148.66.362.91.64.249.28.44.618.573 1.018.133.399.2.85.2 1.352 0 .503-.067.954-.2 1.353a2.83 2.83 0 0 1-.573 1.014c-.25.277-.553.49-.91.637-.357.148-.759.222-1.207.222zm7.991 1.356v-5.627a7.93 7.93 0 0 0-.038-.767l4.791 6.102c.084.11.171.186.259.229a.784.784 0 0 0 .336.063h.881v-9.163h-1.502v5.57a8.02 8.02 0 0 0 .045.83l-4.81-6.128a1.383 1.383 0 0 0-.127-.142.458.458 0 0 0-.117-.082.448.448 0 0 0-.136-.038 1.565 1.565 0 0 0-.19-.01h-.894v9.163h1.502zm10.899.101c.507 0 .957-.077 1.35-.23.393-.155.726-.366.998-.635.273-.268.48-.583.621-.944.142-.361.212-.749.212-1.163 0-.38-.06-.703-.18-.97a2.072 2.072 0 0 0-.479-.674 2.672 2.672 0 0 0-.678-.456 7.448 7.448 0 0 0-.776-.317 34.17 34.17 0 0 0-.776-.257 4.397 4.397 0 0 1-.678-.272 1.513 1.513 0 0 1-.479-.368.812.812 0 0 1-.18-.538c0-.17.029-.325.088-.466a.954.954 0 0 1 .27-.364c.12-.102.268-.181.443-.238.176-.057.382-.086.618-.086.262 0 .489.033.681.099.193.065.361.138.504.218.144.08.268.153.374.219a.558.558 0 0 0 .285.098.406.406 0 0 0 .219-.057.467.467 0 0 0 .161-.197l.419-.804a3.378 3.378 0 0 0-1.166-.71 4.281 4.281 0 0 0-1.496-.253c-.477 0-.902.073-1.274.221a2.89 2.89 0 0 0-.941.59 2.52 2.52 0 0 0-.782 1.818c0 .419.06.77.18 1.055.121.286.28.523.479.713.198.19.424.345.678.463.253.118.511.22.773.304.262.085.52.163.773.235.254.071.48.159.678.262.199.104.358.232.479.384.12.152.18.348.18.59 0 .43-.133.76-.399.991-.266.23-.642.345-1.128.345-.317 0-.588-.043-.814-.13a3.344 3.344 0 0 1-.59-.288 11.185 11.185 0 0 1-.434-.288.602.602 0 0 0-.342-.13c-.08 0-.153.02-.219.06a.627.627 0 0 0-.167.149l-.495.817c.178.182.379.347.605.495.226.148.469.274.729.38.26.105.531.187.814.244.284.057.571.085.862.085zM33.443 44.204c-.25.285-.572.55-.876.796-1.963-2.03-4.268-4.278-6.459-4.278-1.358 0-2.337 1.034-3.478 1.764-1.584 1.012-3.757 1.582-5.619.84-1.001-.381-1.972-.941-2.697-1.851 1.466 1.01 3.66 1.146 5.315.46 1.828-.759 3.69-1.766 5.774-1.766 3.072 0 5.992 2.078 8.04 4.035zm-22.706-6.382c2.034 2.316 5.351 1.57 8.067 2.149.378.08.733.206 1.138.144-.322-.205-.75-.228-1.123-.369-2.107-.793-2.435-3.048-3.588-4.6 1.472.98 2.692 2.32 4.07 3.58.958.876 2.152 1.25 3.39 1.503-.297.109-.686.083-1.007.162-2.225.552-4.69 1.423-7.058.642-1.527-.504-3.117-1.698-3.889-3.21zm-3.26-5.359c1.268 2.873 4.456 3.098 6.575 4.86.404.335.803.643 1.246.85l.023-.023c-.49-.443-1.019-.97-1.398-1.52-1.211-1.76-.808-4.166-1.742-6.033.849 1.016 1.645 2.063 2.133 3.226.787 1.872 1.054 4.008 2.817 5.43-1.908-.63-4.11-.504-5.829-1.63-1.807-1.183-3.481-3.05-3.825-5.16zm-1.36-5.811c.184 2.53 2.878 3.883 4.163 5.963.275.444.557.903.955 1.262-.062-.27-.283-.509-.405-.773a5.804 5.804 0 0 1-.496-2.988c.125-1.292.664-2.492.457-3.851 1.107 2.39.75 5.378 1.39 7.962.142.572.49 1.072.704 1.614-1.088-.828-2.513-1.563-3.708-2.504-1.155-.91-2.157-1.977-2.678-3.366-.376-1-.473-2.194-.381-3.32zm.076-4.663c.13-.565.23-1.15.475-1.668-.465 2.388 1.123 4.112 1.665 6.178.205.778.275 1.605.59 2.331.029.016.054-.014.072-.038-.783-2.198.365-4.23 1.484-5.962.294-.456.436-.986.573-1.522.121.995-.09 2.147-.275 3.174-.236 1.322-.688 2.56-1.047 3.836-.237.797-.175 1.696-.053 2.531l-.114-.09c-.833-1.539-2.477-2.74-2.974-4.419-.396-1.341-.67-2.891-.396-4.351zm.879-2.568c0-1.807.703-3.28 1.758-4.626.03-.015.053-.046.092-.039-1.161 1.767-.104 3.998-.253 6.002l-.154 2.057c.023.015.023.076.077.053.069-.23.09-.473.13-.71.28-1.658 1.735-2.813 2.97-3.983.292-.277.506-.605.644-.957a7.675 7.675 0 0 1-.704 2.424c-.95 1.924-2.786 3.477-3.117 5.664-.16-2.096-1.443-3.654-1.443-5.885zm3.061-6.094c.585-.648 1.24-1.152 2.019-1.352-1.514 1.04-1.432 2.9-1.895 4.456-.17.568-.418 1.101-.55 1.689l.038.03a4.995 4.995 0 0 1 1.246-1.834c1.065-1.004 2.665-1.612 3.192-3.081-.024 2.041-1.764 3.593-3.354 4.794a5.79 5.79 0 0 0-1.688 2.02c.062-.565.09-1.034.04-1.585-.164-1.783-.27-3.782.953-5.137zm6.143-3.432c-1.123.985-1.872 2.254-2.735 3.394-.718.949-1.703 1.536-2.55 2.332.458-.948.542-2.035 1.123-2.953.992-1.568 2.633-2.177 4.162-2.773z"/>
    <path fill="#D1D4D7" d="M21.834 44.204c.25.285.571.55.875.796 1.964-2.03 4.269-4.278 6.46-4.278 1.358 0 2.337 1.034 3.478 1.764 1.584 1.012 3.757 1.582 5.619.84 1.001-.381 1.971-.941 2.697-1.851-1.466 1.01-3.66 1.146-5.315.46-1.829-.759-3.69-1.766-5.774-1.766-3.072 0-5.992 2.078-8.04 4.035zm22.706-6.382c-2.034 2.316-5.352 1.57-8.067 2.149-.378.08-.733.206-1.139.144.323-.205.751-.228 1.124-.369 2.107-.793 2.435-3.048 3.588-4.6-1.472.98-2.693 2.32-4.07 3.58-.958.876-2.152 1.25-3.39 1.503.297.109.686.083 1.007.162 2.224.552 4.69 1.423 7.058.642 1.527-.504 3.117-1.698 3.889-3.21zm3.26-5.359c-1.269 2.873-4.456 3.098-6.576 4.86-.403.335-.802.643-1.245.85l-.023-.023c.49-.443 1.018-.97 1.397-1.52 1.212-1.76.809-4.166 1.743-6.033-.849 1.016-1.645 2.063-2.133 3.226-.787 1.872-1.054 4.008-2.818 5.43 1.91-.63 4.111-.504 5.83-1.63 1.806-1.183 3.48-3.05 3.825-5.16zm1.36-5.811c-.184 2.53-2.879 3.883-4.163 5.963-.275.444-.557.903-.956 1.262.063-.27.284-.509.406-.773a5.804 5.804 0 0 0 .496-2.988c-.125-1.292-.664-2.492-.457-3.851-1.108 2.39-.75 5.378-1.39 7.962-.142.572-.49 1.072-.705 1.614 1.088-.828 2.514-1.563 3.709-2.504 1.154-.91 2.157-1.977 2.678-3.366.376-1 .473-2.194.381-3.32zm-.076-4.663c-.13-.565-.23-1.15-.475-1.668.465 2.388-1.123 4.112-1.666 6.178-.204.778-.274 1.605-.588 2.331-.03.016-.055-.014-.073-.038.783-2.198-.366-4.23-1.484-5.962-.295-.456-.436-.986-.574-1.522-.12.995.091 2.147.275 3.174.237 1.322.69 2.56 1.048 3.836.237.797.174 1.696.053 2.531l.114-.09c.833-1.539 2.477-2.74 2.973-4.419.397-1.341.672-2.891.397-4.351zm-.879-2.568c0-1.807-.703-3.28-1.758-4.626-.031-.015-.053-.046-.092-.039 1.161 1.767.104 3.998.253 6.002l.153 2.057c-.022.015-.022.076-.076.053-.069-.23-.09-.473-.13-.71-.28-1.658-1.736-2.813-2.97-3.983a2.637 2.637 0 0 1-.644-.957c.103.826.333 1.673.704 2.424.95 1.924 2.786 3.477 3.116 5.664.16-2.096 1.444-3.654 1.444-5.885zm-3.062-6.094c-.584-.648-1.239-1.152-2.018-1.352 1.514 1.04 1.431 2.9 1.895 4.456.17.568.418 1.101.55 1.689l-.038.03a4.996 4.996 0 0 0-1.246-1.834c-1.065-1.004-2.665-1.612-3.192-3.081.024 2.041 1.764 3.593 3.354 4.794.712.538 1.318 1.261 1.688 2.02-.062-.565-.09-1.034-.04-1.585.164-1.783.27-3.782-.953-5.137zm-6.142-3.432c1.123.985 1.872 2.254 2.735 3.394.718.949 1.702 1.536 2.55 2.332-.458-.948-.542-2.035-1.123-2.953-.993-1.568-2.633-2.177-4.162-2.773zM41.356 30.3l-.331-.18a14.932 14.932 0 0 1-2.75 3.912l-1.937-1.938a12.125 12.125 0 0 0 2.279-3.29l-.33-.18a11.795 11.795 0 0 1-2.213 3.206l-1.755-1.755a9.255 9.255 0 0 0 1.783-2.644l-.328-.179a8.928 8.928 0 0 1-1.718 2.56l-1.94-1.94a6.13 6.13 0 0 0 1.24-1.942l-.329-.178a5.797 5.797 0 0 1-1.173 1.859l-1.76-1.761c.501-.56.792-1.262.833-2.013h2.493a5.747 5.747 0 0 1-.392 1.915l.327.178c.263-.66.41-1.365.432-2.093h2.748a8.843 8.843 0 0 1-.76 3.415l.327.179c.5-1.12.776-2.335.8-3.594h2.488a11.678 11.678 0 0 1-1.104 4.787l.33.18a12.072 12.072 0 0 0 1.141-4.967h2.748a14.776 14.776 0 0 1-1.48 6.283l.331.18a15.179 15.179 0 0 0 1.521-6.646 15.21 15.21 0 0 0-1.106-5.716l-.34.147a14.84 14.84 0 0 1 1.075 5.385h-2.748a12.1 12.1 0 0 0-.854-4.3l-.338.146c.518 1.307.802 2.708.824 4.154h-2.488a9.251 9.251 0 0 0-.624-3.171l-.338.145c.37.955.574 1.975.595 3.026h-2.748a6.145 6.145 0 0 0-.372-1.94l-.338.144c.207.57.324 1.174.343 1.796h-2.493a3.267 3.267 0 0 0-.833-2.013l1.762-1.762a5.748 5.748 0 0 1 1.22 1.98l.339-.145a6.124 6.124 0 0 0-1.3-2.095l1.944-1.943a8.855 8.855 0 0 1 1.881 2.952l.338-.145a9.229 9.229 0 0 0-1.96-3.067l1.76-1.76a11.713 11.713 0 0 1 2.488 3.844l.338-.145a12.087 12.087 0 0 0-2.566-3.958l1.943-1.943a14.825 14.825 0 0 1 3.15 4.815l.34-.146a15.203 15.203 0 0 0-3.358-5.061 15.203 15.203 0 0 0-5.082-3.366l-.135.345a14.83 14.83 0 0 1 4.825 3.154l-1.943 1.943a12.1 12.1 0 0 0-3.886-2.536l-.134.342a11.723 11.723 0 0 1 3.76 2.456l-1.759 1.76a9.24 9.24 0 0 0-2.91-1.9l-.135.342a8.875 8.875 0 0 1 2.786 1.817l-1.943 1.943a6.139 6.139 0 0 0-1.847-1.201l-.134.342c.629.264 1.21.64 1.721 1.119l-1.763 1.763a3.267 3.267 0 0 0-2.012-.834v-2.493c.716.023 1.41.175 2.054.445l.134-.342a6.137 6.137 0 0 0-2.189-.47v-2.748a8.875 8.875 0 0 1 3.193.66l.135-.342a9.242 9.242 0 0 0-3.328-.685v-2.49c1.476.023 2.906.318 4.237.857l.134-.342a12.093 12.093 0 0 0-4.37-.881V8.787c1.87.023 3.686.392 5.374 1.072l.136-.345a15.215 15.215 0 0 0-5.694-1.098c-2.45 0-4.765.585-6.818 1.616l.168.32a14.795 14.795 0 0 1 6.466-1.565v2.749c-1.861.027-3.62.48-5.189 1.258l.167.32a11.693 11.693 0 0 1 5.022-1.212v2.489a9.205 9.205 0 0 0-3.866.932l.168.321a8.857 8.857 0 0 1 3.698-.886v2.748a6.115 6.115 0 0 0-2.422.577l.169.323a5.757 5.757 0 0 1 2.253-.533v2.493c-.386.021-.755.11-1.095.253l.168.322a2.924 2.924 0 0 1 1.111-.217c.783 0 1.519.305 2.073.858.553.554.858 1.29.858 2.073a2.935 2.935 0 0 1-2.931 2.932c-.783 0-1.52-.305-2.073-.859a2.913 2.913 0 0 1-.859-2.073c0-.783.305-1.52.859-2.073.28-.28.607-.495.962-.64l-.168-.323c-.338.143-.647.34-.917.581l-1.763-1.763a5.774 5.774 0 0 1 1.522-1.032l-.17-.322c-.594.28-1.137.65-1.61 1.096l-1.945-1.945a8.903 8.903 0 0 1 2.28-1.59l-.168-.321a9.309 9.309 0 0 0-2.368 1.654l-1.763-1.762a11.754 11.754 0 0 1 2.975-2.101l-.167-.32a12.178 12.178 0 0 0-3.064 2.165l-1.947-1.947a14.885 14.885 0 0 1 3.733-2.66l-.167-.32a15.338 15.338 0 0 0-6.854 6.9l.32.172a14.885 14.885 0 0 1 2.709-3.832l1.947 1.947a12.162 12.162 0 0 0-2.232 3.195l.318.172a11.76 11.76 0 0 1 2.17-3.111l1.762 1.762a9.299 9.299 0 0 0-1.734 2.537l.319.172a8.881 8.881 0 0 1 1.672-2.452l1.945 1.945a6.169 6.169 0 0 0-1.19 1.819l.321.174a5.766 5.766 0 0 1 1.126-1.736l1.764 1.764a3.282 3.282 0 0 0-.835 2.011h-2.493c.022-.71.172-1.4.438-2.04l-.321-.173c-.29.683-.46 1.43-.484 2.213H18.74a8.856 8.856 0 0 1 .805-3.525l-.319-.172a9.204 9.204 0 0 0-.852 3.697h-2.49c.027-1.718.421-3.376 1.144-4.885l-.318-.172a12.042 12.042 0 0 0-1.192 5.057H12.77a14.794 14.794 0 0 1 1.515-6.367l-.319-.172a15.145 15.145 0 0 0-1.568 6.723c0 1.476.211 2.918.614 4.295l.36-.09a14.917 14.917 0 0 1-.602-4.021h2.748c.017 1.15.194 2.276.52 3.35l.356-.09a11.78 11.78 0 0 1-.51-3.26h2.49c.017.912.168 1.803.439 2.65l.357-.09a8.91 8.91 0 0 1-.43-2.56h2.748c.02.652.14 1.288.354 1.887l.357-.09a5.788 5.788 0 0 1-.344-1.797h2.493c.041.75.332 1.453.834 2.013l-1.763 1.762a5.762 5.762 0 0 1-1.22-1.978l-.357.09c.282.791.726 1.521 1.317 2.148l-1.942 1.943A8.857 8.857 0 0 1 19.17 26.4l-.357.09a9.21 9.21 0 0 0 2.145 3.587l-1.76 1.76a11.687 11.687 0 0 1-2.803-4.738l-.357.09a12.054 12.054 0 0 0 2.9 4.907l-1.942 1.943a14.784 14.784 0 0 1-3.623-6.179l-.36.09a15.153 15.153 0 0 0 3.85 6.481 15.251 15.251 0 0 0 4.204 2.982l.182-.324a14.87 14.87 0 0 1-3.994-2.79l1.943-1.943c1.01.98 2.161 1.761 3.406 2.33l.182-.32a11.757 11.757 0 0 1-3.328-2.27l1.76-1.76a9.24 9.24 0 0 0 2.796 1.852l.181-.321a8.876 8.876 0 0 1-2.717-1.789l1.943-1.943a6.122 6.122 0 0 0 2.139 1.315l.184-.325a5.76 5.76 0 0 1-2.064-1.25l1.763-1.762c.56.502 1.262.793 2.013.834v2.493a5.785 5.785 0 0 1-1.712-.315l-.184.325c.602.216 1.24.337 1.896.357v2.747a8.869 8.869 0 0 1-3.26-.686l-.181.321c1.076.458 2.24.71 3.44.733v2.488a11.711 11.711 0 0 1-4.669-1.043l-.18.321a12.08 12.08 0 0 0 4.85 1.09v2.747a14.808 14.808 0 0 1-6.206-1.435l-.183.324a15.18 15.18 0 0 0 6.572 1.482c2.426 0 4.764-.566 6.867-1.63l-.173-.338a14.772 14.772 0 0 1-6.51 1.597v-2.748a12.056 12.056 0 0 0 5.253-1.283l-.171-.333a11.672 11.672 0 0 1-5.082 1.249V32.92a9.211 9.211 0 0 0 3.944-.965l-.17-.331a8.839 8.839 0 0 1-3.774.93v-2.748a6.118 6.118 0 0 0 2.516-.62l-.17-.329a5.753 5.753 0 0 1-2.346.581v-2.492a3.267 3.267 0 0 0 2.013-.834l1.76 1.76a5.814 5.814 0 0 1-1.426.985l.169.33a6.158 6.158 0 0 0 1.519-1.053l1.94 1.94a8.923 8.923 0 0 1-2.201 1.55l.17.33a9.273 9.273 0 0 0 2.293-1.617l1.756 1.755a11.788 11.788 0 0 1-2.911 2.068l.171.333a12.122 12.122 0 0 0 3.004-2.137l1.938 1.938a14.932 14.932 0 0 1-3.685 2.633l.173.337a15.271 15.271 0 0 0 3.91-2.832 15.253 15.253 0 0 0 2.942-4.129l-.002-.003z"/>
    <path fill="#D1D4D7" d="M28.526 20.127l-.106.004.005.11.107-.005-.006-.109z"/>
    <path fill="#D1D4D7" d="M29.4 19.98h-1.117v1.116H29.4V19.98zM28.063 19.95l.107.017.013-.096-.107-.015-.014.094zM27.973 19.916l-.108-.015.013-.093.108.015-.013.093z"/>
    <path fill="#D1D4D7" d="M28.203 19.792h-1.117v1.117h1.117v-1.117zM26.816 19.982l.108.015.013-.095-.108-.016-.013.096zM26.828 20.12l-.123-.03.022-.091.124.03-.023.091zM26.61 20.235l-.016-.093.091-.015.016.094-.092.014zM14.541 29.807v.203h.093l-.016-.234-.123-.047v-.078h-.077v.156h.123zM15.188 30.37l.23.108.077.218.108.079.108.234-.062.109-.169-.156-.123-.172-.062-.14-.107-.28zM19.075 35.175l.078.203-.108.062-.062-.093-.153-.047-.015-.14-.124-.188.185.031.2.172z"/>
    <path fill="#D1D4D7" d="M27.162 21.134h-.169l-.03-.344.091-.062v-.172h-.538l-.015-.171.077-.047-.123-.047-.092.125-.03.14-.155.031v.078h-.107v.203l-.43.359-.861-.031c-.062.14-.216-.016-.216-.016-.03-.093-.245 0-.245 0 0 .172-.293-.078-.293-.078l-.538-.39c-.307-.28-.768.078-.784.156.016.219-.353.047-.353.047s-.307-.094-.354.031c-.046.125-.246.094-.246.094l-.03.062-.154.032-.03.093-.185.031.46-.015c.124-.016-.046.265-.122.25l-.215.015-.077.078h-.2l-.092.125-.292-.016s-.17.14-.154.187c.015.047-.03.188-.077.188-.046 0-.138.14-.108.187.031.047-.092.203-.092.203l-.03.156-.093.03v.422l-.184.125v.187l-.277.297.03.249-.23.25.031.25-.138.046-.03.11-.062.327.153.016c.077-.032.062.202 0 .233-.061.032-.23.094-.138.156.092.063-.246.047-.246-.046 0-.094-.185-.172-.23-.14-.047.03-.124-.141-.124-.141-.169-.172-.691.015-.691.015l-.077.25c-.17.031-.277.312-.277.312-.138.047-.246.218-.2.265.046.047-.077.063-.077.063v.343l-.076.11.015.373c.092 0 .077.172.077.172-.154.016-.123.219-.123.219l-.323.109-.062.093-.4-.015-.107.109-.108-.11h-.768l-.03-.077-.154-.032-.016-.171-.23.015-.046.094-.247.016c.016.156-.246.39-.276.328-.031-.063-.2-.235-.123-.266.077-.031.277-.063.277-.063v-.109l-.57-.015-.06.094-.231.015v.25l-.108.031c-.077.047.015.218.015.218.108.11-.015.281-.015.281-.092.094.077.265.077.265.123.031-.077.125-.077.125.03.156.123.203.123.203-.092.156.062.234.062.234l.015.265.107.063v.17l.062.11h.246l-.016-.39c-.215-.25.185-.312.2-.218.016.093.185.14.185.14.03.234.292.374.369.14.077-.234.138-.093.184.016.046.11.338.375.338.375h.231l.03.218c.262-.015.339.016.446.374.108.36.4.453.4.453l.215-.016c0-.187.216.032.216.125 0 .094.415.453.415.453l.415.093.384.312.292-.03h.123c.077-.266.446.014.477.108.03.094.276.25.307.172.03-.078.2-.031.23.202.031.235.139.188.139.188l.876-.016.308-.265.784-.016c.4-.015.153-.561.077-.561-.139-.11.046-.562.046-.562l-1.123-1.045c-.26 0-.03-.375-.03-.375.2-.125-.047-.327-.047-.327.031-.188-.107-.406-.107-.406-.277-.187-.2-.546-.2-.546v-.25c-.23-.218.092-.25.092-.25.108-.186-.077-.327-.077-.327l-.015-.203-.246-.03-.03-.734-.554-.796c-.108-.031-.03-.218-.03-.218.138-.078-.032-.265-.032-.265l-.015-.343.323-.032.077-.124h.153l-.015-.406c.077-.203.261-.094.261-.094l.215.016.123-.234.031-.188-.169-.015c-.184-.11-.092-.515-.092-.515.292-.437.63-.187.63-.187l.215-.016c.323.219.03.624.03.624-.06.094-.03.39-.03.39l.077.5-.2.171c-.169.094-.169.312.016.36.123.015.076.311-.108.108-.277 0 .154.25.03.187.278.14.216-.125.216-.125l.37-.296c.138-.11.384.234.384.281 0 .047.614.015.614.015.17.11.23.39.23.39.17-.218.524-.015.262.11.246.156.246.296.246.296.2-.062.2.094.2.14 0 .047.061-.233.061-.233-.23-.172.308-.235.154.078l-.092.14.154.125.015.359c.338-.032.246-.453.246-.453l.154-.03c0-.141.107-.063.107-.063-.107-.531.246-.624.246-.624.2-.047.215-.469.215-.469-.138-.062-.061-.28.093-.093.153.187-.093-.375-.093-.375l-.122-.109-.17-.015-.015-.172h-.276l-.047.219-.107.03-.031-.062-.046.172h-.277l-.015-.187.169-.047.061-.094.046-.25h.2l.262-.077c.015-.265.153-.203.153-.203l.093.078.138.11.015.093-.092.046-.015.125.046.172h.123c.046-.25.369-.25.461-.094l.092-.218c-.215-.11-.004-.281.058-.203.061.078.204-.203.204-.203s.107.14 0-.047c-.108-.187.076-.28.076-.28-.03-.188.2-.156.2-.156l.016-.25-.216-.016c-.046.219-.23.032-.138-.015.093-.047.184-.14.184-.14v-.157l.093-.03.015-.157h.23l.2-.093.047-.079.215-.015.307-.28-.03-.126c-.185 0 0-.14 0-.14l.03-.234z"/>
    <path fill="#D1D4D7" d="M20.967 24.223l-.276-.032.015.11h.077c.123.218.015.748.015.748s-.184.016-.215-.078c-.03-.093-.108.203-.046.25.061.047.277 0 .292.172.015.171.138-.11.138-.11v-1.06z"/>
    <path fill="#D1D4D7" d="M20.69 25.487v.374l.246.328.092-.219.03-.14-.107-.047.015-.233.093-.017.015-.11-.231.157-.154-.093zM21.09 26.532v-.156l-.107.015-.016.125.123.016zM20.95 27.28v-.11l-.13.016v.11l.13-.015zM21.132 26.8c.036 0 .065-.03.065-.066a.065.065 0 0 0-.065-.066.066.066 0 0 0-.066.066c0 .037.03.066.066.066z"/>
    <path fill="#D1D4D7" d="M21.24 28.18a1.117 1.117 0 1 0 0-2.235 1.117 1.117 0 0 0 0 2.234z"/>
    <path fill="#D1D4D7" d="M21.244 26.397a1.117 1.117 0 1 0 0-2.234 1.117 1.117 0 0 0 0 2.234zM26.177 23.162h.093l.015.093-.061.063-.03.078-.124.031-.277.266-.015.124-.077.11-.092.233-.323.016-.061.28.045.235.277.11.031-.157.092-.047.016-.156.06-.11.094-.108.03-.125.154-.093.184-.032.077-.093.031-.187.011-.14.066-.095.184-.078v-.296h-.092l-.015-.11-.17-.015-.03.078h-.077l-.016.125zM26.901 24.035v-.218l-.03-.203-.231-.11-.17.157-.03.218v.14l-.154.032-.03.421-.124.047.016.156-.17.047-.168.047-.031.202-.123.078-.062.188-.076.452s.138.265.215.14c.077-.124.2-.14.2-.14l.046-.11.415.016c.03-.171.23-.109.23-.03 0 .077.154.015.154.015l.108-.172h.169l.015-.187.077-.047v-.28c.246-.079.215-.313.215-.313l.062-.078-.031-.109c-.123-.047-.062-.156.015-.125s-.107-.14-.107-.14c-.092.078-.17-.094-.17-.094h-.23zM27.146 25.923c-.016.187-.246.25-.246.25l-.17-.048-.091-.078-.016-.218.138-.015.031.093.354.016zM27.978 24.925c.033.136.03-.219.092-.203.061.016.015-.218.015-.218l-.276.202c.138.016.153.157.169.22zM28.79 24.113c.062.14.047.343.277.5.078.052-.046.155-.123.108-.077-.046-.292-.39-.292-.39v-.203c.046-.124.112-.076.139-.015zM28.791 28.856l.046.046.045.078.108-.171-.092-.032-.107.079zM30.63 28.38l.124-.078-.05-.078-.122.077.049.08zM35.078 31.633l.139.062.015.265c.185.188.784.031.784-.015 0-.047-.03-.578-.03-.578l-.078-.078-.015-.39c.061-.203-.292-.5-.323-.436-.03.062-.23.015-.23.078 0 .062-.123.374-.062.483.062.11-.046.11-.061.218-.016.11-.17.297-.139.39zM34.739 31.01c-.03.118-.138.187-.2.14-.062-.047.077.078.108.14.03.063.122.063.153 0 .03-.063.016-.202.047-.265.03-.062-.093-.078-.108-.015zM35.142 28.148h-1.117v1.116h1.117v-1.116zM35.615 25.144c-.067-.091.308-.25.37-.063.06.187 0 .156-.062.14-.062-.015-.215.047-.308-.077zM35.948 23.054l-.016.092.168.03.017-.091-.17-.031zM35.516 23.322l.012.028.085-.034-.03-.078-.02-.05-.046.026-.115.065-.1-.063-.048.078.123.078.023.015.023-.013.093-.052zM36.092 19.526h-.231s.077.032-.138-.171c-.216-.203-.354.047-.354.047l-.246.03v.25L35 19.73l.016.156.169-.015s0 .187.046.109.43.015.4.203c-.013.077.384.28.338.53.2.031.154.234.154.234l.26.031.078-.156.076.016v-.094l-.169-.046-.03-.5-.108-.078.03-.125-.122-.046.061-.203-.107-.219zM36.77 21.118l-.124-.015-.277.046-.153.297s.076.046.138.156c.061.109.092.748-.092.858-.185.11.015.046.015.046l-.03.344c.045.156.122.078.168 0 .047-.078.093-.094.154-.172.062-.078.154-.218.17-.328.015-.109.092-.28.045-.327-.046-.047.047-.265.047-.265s.061-.125 0-.25c-.062-.125.015-.265.061-.328l-.123-.062zM36.955 21.755l.016-.125.092.012-.016.124-.092-.011zM36.95 22.186l-.083-.041.046-.094.083.041-.047.094zM36.815 20.948l-.062-.14s0-.125.031-.188c.03-.063-.062-.125-.108-.14-.046-.016-.03-.14-.046-.203-.015-.063-.122-.11-.122-.11s-.031-.234-.031-.28c0-.047-.139-.11-.093-.156.047-.047.077-.11.124-.14.046-.032-.047-.25.03-.204.077.047.077.125.108.188.03.062-.016.28.061.327.077.047-.015.203.108.203s.046.296.046.296-.03.219.046.235c.077.015.03.39.03.39l-.122-.078zM35.816 18.419c.046.062.139.109.139.172 0 .062-.031.109.061.124.092.016.154-.015.185.063.03.078.03.203.015.265s.015.156.092.156.093.016.093.062c0 .047.092-.171.092-.171a.653.653 0 0 1-.139-.203s-.076-.219-.076-.25c0-.03-.108-.062-.154-.078-.046-.015-.123-.156-.123-.156l-.185.016zM35.971 18.28a.436.436 0 0 0-.154-.14c-.06-.032-.107-.063-.169-.063a.1.1 0 0 1-.092-.14c.03-.079-.046-.11-.046-.172 0-.063.046-.063.123-.016s.061.063.123.14c.061.079.092.157.153.141.062-.016.108.14.17.094.061-.047.046.109.046.109l-.154.047zM34.172 20.042c.085.086-.461.062-.461 0s.046-.28.184-.234c.139.047.154-.28.154-.28s-.123.015-.015-.048c.107-.062 0-.156-.047-.202-.046-.047-.092-.125-.092-.125h.216c.092-.063.122-.36.122-.36.185.063.277-.062.277-.062s.031.094.093.172c.061.078-.154.11-.078.156.078.047.108.187.078.234-.031.047-.2.016-.2-.047 0-.062-.062.078 0 .156.06.078-.077.188-.108.188s-.23.03-.062.124c.17.094.354.047.354.047s.138-.015.184.063c.047.078-.015.093-.092.093-.076 0-.446-.031-.446-.031s-.107.11-.061.156zM33.189 20.183c.077-.016.26-.032.292.015.03.047-.108.11-.108.11l-.184.03c-.062-.078-.077-.14 0-.155zM35.172 18.873c.123-.063.384-.063.369-.156-.015-.094.153-.125.153-.125l.046.187.139.093.015.172s.046-.031-.123.016c-.169.047-.061.125-.061.125l-.37.015-.045-.156-.123-.171zM34.57 18.03c.094 0-.03.358.216.327.246-.031.016.11.2.125.184.016.138-.14.2-.25.062-.109.03-.171-.077-.203-.108-.03-.108-.03-.138-.156a.225.225 0 0 0-.154-.156l-.046-.187-.2.125-.2.265c0 .203.108.11.2.11zM34.978 19.349l.047-.094.083.041-.046.094-.084-.041z"/>
    <path fill="#D1D4D7" d="M35.933 19.2h-1.117v1.116h1.117V19.2zM34.895 17.121l.015.14-.092.01-.015-.14.092-.01z"/>
    <path fill="#D1D4D7" d="M35.75 18.575h-1.117v1.117h1.117v-1.117zM34.39 18.573l-.008-.093.153-.015.01.093-.154.015zM33.123 20.073l-.085-.036.047-.109.084.036-.046.11zM32.64 19.79l-.008-.093.154-.015.009.093-.154.015zM29.972 19.76l-.337.017.004.095.338-.015-.005-.096zM29.408 19.896l-.03-.14.09-.02.03.14-.09.02zM29.344 19.993l-.03-.089.047-.015.029.089-.046.015zM30.113 19.73l-.015.11.169.015s.076.063.076.11c0 .046.108.093.17.093.061 0 .23-.125.23-.125s.077-.218.016-.203c-.062.016-.185.11-.2.016-.016-.094-.2-.047-.2-.047l-.246.032zM30.88 19.559c0 .046-.03.109.061.124.093.016.262-.062.277.032.016.093.016.156.139.203.122.046.2.062.292.062.092 0 .292-.031.292-.031s.217.034.261.078c.169.171.277.218.323.14.046-.078-.016-.25-.03-.312-.016-.062-.232-.359-.308-.296-.077.062-.093 0-.231.046-.138.047-.43.016-.446-.046-.015-.063-.23-.094-.23-.156 0-.063-.154-.14-.139-.047.016.093-.107.14-.138.11-.03-.032-.123.093-.123.093zM34.418 17.56l.108-.342c-.154-.032-.123-.203-.123-.203-.015-.14-.23-.297-.307-.25-.077.047-.047-.328-.047-.328s.139-.093.2-.046c.062.046-.522-.78-.645-.702-.123.078-.4-.078-.384-.219.015-.14-.554-.608-.554-.608s-.184-.125-.215-.031c-.03.093-.092.156 0 .202.092.047.077-.078.184.032.108.109.308.25.231.343-.077.094-.17.125-.17.125l.109.125h.169l.03.265s.185.093.23.202c.047.11.047.172 0 .235-.045.062-.137.171-.122.28.015.11.138.156.138.156l.123.016.093.047v.203c.122-.032.322.14.307.25-.015.108.03.046.184.155.154.11.108.125.216.203.107.078.2.031.245-.11z"/>
    <path fill="#D1D4D7" d="M31.88 15.44c-.015-.063-.046-.281.047-.265.092.015.03 0 .138.046.107.047.123-.077.123-.077h.169l.215.171-.03.14-.154.016c-.077-.125-.231-.078-.2.031.03.11-.077.312-.138.328-.062.015-.262.015-.246-.078.015-.094.076-.312.076-.312zM31.757 15.018v-.125s-.016-.124-.092-.124c-.077 0-.215-.094-.185-.156.031-.063-.261-.125-.261-.125s-.261-.25-.169-.218c.092.03.046-.11.046-.11s-.184.031-.23.016c-.047-.016-.032-.156-.032-.156s-.184-.047-.184 0 .062.047.092.14c.031.094.016.25.154.28.139.032.17.063.185.126.015.062.184.078.184.078l.123.062.37.312zM30.099 13.427l-.046-.125-.123-.03v.14l.169.015zM30.052 12.771c-.161-.122.215.094.215.094.123 0 .2.094.2.14 0 .047.169.032.169.032l.015-.11-.123-.155-.107-.078s-.17-.016-.17-.063c0-.046-.138.187-.2.14zM32.88 12.865c-.045.136-.061.327-.138.327-.077 0-.046.203-.046.203s.2 0 .261.016c.061.015.061.171.061.171.231-.015.323.297.292.375-.03.078.093.078.093.078s0 .25-.031.312c-.03.062.2.11.261.203.062.093-.03.405-.077.42-.046.016.123.063.108.141-.016.078.046 0 .061.125l.047.39.215.016c.03-.203.427-.21.492-.188.26.094.461.5.461.593 0 .094-.17.11-.17.11l.032.452c.26.078.476.452.445.515-.03.062.185.047.185.047.03-.281.292-.188.307-.094.016.094.062.296.062.296l.076.14.108.11.169-.016.046.094.2.031s.17.187.185.234c.015.047.246.031.307.047s.154.063.169.14a.724.724 0 0 0 .108.203s.184.047.2.11c.015.062.092.202.092.202l.153.125.016.14.169.016.046.187.276-.015.154-.11c.2-.108.339-.25.354-.311.015-.063.046-.297.2-.25.154.047.046-.343.046-.343s-.215-.156-.2-.235c.016-.077-.215-.233-.2-.296.016-.062-.2-.187-.184-.25.015-.062-.108-.233-.108-.233l-.23-.219-.031-.14-.185-.016-.368-.452.015-.125-.108-.016v-.171l-.107-.063-.17-.015-.338-.375-.03-.171h-.17l.031-.328c.108-.14.046-.406.046-.406s-.215.11-.322.063c-.108-.047.046-.156.046-.156v-.125l-.092-.094s-.262.032-.277-.015a5.632 5.632 0 0 1-.062-.25l-.015-.265-.107-.047-.016-.093-.169.015v-.187l-.092-.031-.093-.047-.015-.187-.338-.016-.108-.156-.123-.187-.384-.031-.092-.094-.154-.03-.107-.048-.047.078-.292.016-.015.093c-.154.078-.768.016-.784.063zM34.493 12.46c-.024-.123.308-.234.385-.14.077.094.292.11.323.578.01.167-.277-.172-.277-.172l-.23-.078c-.124-.031-.185-.11-.2-.188zM29.984 12.65l-.084-.037.062-.14.084.037-.062.14zM29.19 11.118l-.2-.203v-.171l-.062-.063-.061-.218-.2-.063-.2.078-.215.14-.23.032-.124.14.492.047.093.156.353.031.23.234c.2.063.247-.03.124-.14zM29.16 10.353c-.034-.137-.23.172-.03.234.2.063.399 0 .399 0l.046-.093.768.015c.062-.062.093-.156.093-.156s.184-.062.261-.031c.077.031.016-.218-.061-.187s-.23.015-.23.015h-.277c-.016-.109-.262-.062-.277 0-.016.063-.108.078-.108.078l-.353.032c-.031.093-.215.156-.23.093zM27.639 12.986c.236.075.322.02.338-.043.015-.062.03-.078.123-.093.092-.016-.016-.203-.108-.188-.092.016-.184-.03-.2-.109-.016-.078-.169-.28-.184-.124-.016.156-.108.156-.093.265.016.109.062.272.123.292zM25.871 13.162c-.01-.055.308-.063.354-.016.046.047.015.125.154.125.138 0 .076.094.061.14-.015.047-.169.032-.184-.015-.016-.047-.247-.063-.247-.063s-.122-.093-.138-.171zM30.941 10.012l.03.03.032-.027.154-.125-.058-.073-.122.099-.078-.08-.065.067.107.109zM30.253 9.644l.024-.015.17-.11-.05-.079-.144.094-.099-.063-.049.08.124.078.024.015zM29.702 12.831l.096.152.077-.05-.107-.17-.012-.02-.023-.002-.153-.016-.01.093.132.013zM24.67 17.093l.016.172h.23c.093 0-.076-.11-.076-.11s-.184.016-.17-.062zM24.963 17.099l.06-.072.092.077-.06.072-.092-.077zM22.164 14.18l.066-.066.093.093-.066.066-.093-.093zM26.5 34.345l.066.066.077-.077.045-.046-.058-.03-.153-.077-.041.084.096.048-.032.032zM25.29 33.216l.109.078.053-.076-.06-.044.047-.038-.058-.073-.093.078-.046.04.049.035zM36.868 30.176c-.02-.08-.11-.112-.12-.115l-.03.088a.159.159 0 0 1 .03.015l.018.081a.288.288 0 0 1-.02.027l.067.064c.05-.055.068-.109.055-.16zM37.011 29.881l-.15-.011.012-.14.15.023-.012.128zM40.575 28.665c.065-.042.15-.118.138.058-.012.176-.08.117-.139.176-.057.058-.092-.176 0-.234zM41.36 28.003c-.002-.003-.002-.014-.003-.022a.249.249 0 0 0-.024-.097l-.085.042a.17.17 0 0 1 .014.064c.003.027.006.058.033.078.017.013.038.016.064.011l-.018-.09c.007.001.017.008.019.014zM41.15 28.08c.024.094.058.188.06.192l.086-.033c0-.001-.034-.093-.056-.182l-.09.023zM40.823 28.448l-.099-.01c-.007.074.011.165.09.18l.019-.092h.001c-.008-.006-.015-.044-.011-.078zM40.411 26.587a.084.084 0 0 0-.05-.066c-.069-.03-.183.02-.24.058l.051.078c.059-.04.135-.059.152-.05l-.004-.005.091-.015zM36.153 21.602c-.062.062-.2.094-.2.094l-.047.171-.076.063s.015.046 0 .156c-.016.109-.154.171-.154.171l-.061.078s-.371.02-.416 0c-.138-.062-.045-.25.047-.234.092.016-.016-.265-.016-.265l.123-.016s.015-.28.062-.28c.046 0-.015-.094-.077-.14-.062-.047-.139-.203-.2-.188-.062.015-.308 0-.308 0l-.046.094-.169.03s.015.121-.015.157c-.093.109-.446.343-.292-.047l.046-.094v-.14l-.277-.015s-.138-.047-.138-.11c0-.062-.016-.14-.016-.14l-.322-.359-.384-.047-.031-.078-.23-.03c-.278-.141-.524-.017-.477.218.046.234.122.327-.031.327-.154 0-.185-.125-.185-.125s-.122-.047-.122.016c0 .062-.047.187 0 .25.046.062-.062.155-.108.109-.046-.047-.17-.187-.138-.234.03-.047-.216-.343.03-.39.246-.047-.015-.188.077-.218l.123-.063h.123l.077-.063-.2-.03-.123-.016-.23-.016c-.23.156-.277.343-.277.343-.123.234-.415-.093-.307-.218.107-.125-.339-.016-.416.047-.077.062-.307.031-.307.031-.046.14-.261-.015-.2-.11.062-.093.062-.155.062-.155l-.077-.016-.092.172c-.216 0-.277.124-.231.203.046.077-.061-.016-.092.093-.03.11.015.11.107.156.093.047-.046.047.016.125.061.078.246 0 .138.11-.107.108-.323.062-.323.062-.015.14-.307.109-.338.062-.03-.047-.261-.328-.261-.328l-.293-.015c-.03-.219.14-.11.2-.281.062-.172.093-.452.093-.452s-.246-.016-.261.062c-.016.078-.17.125-.17.125s-.123.047-.076.109c.046.063-.093.093-.093.093s.024.101-.015.14c-.123.126-.43.016-.477-.03l-.184-.078-.185-.125-.215.093-.061.063h-.23l-.016.187.415.047.03.386-.168-.058h-.108l-.046-.094-.092-.016v.343l.092.078.077.078.154.016.03.187.384.016.047.078.23.015.446.453-.03.14-.078.047c.031.11-.2.047-.2.047v.093l.108.016.108.062.154-.265c.169-.11.245.047.26.14.016.094-.076.078-.076.078v.219l.092.031c.154.187-.061.297-.061.297l-.046.155c-.047.141-.216.11-.216.11l-.061.093-.185.047.365.047c.035-.125.127-.156.173-.094a.343.343 0 0 1 .046.172l.093.016-.016.171.093.032v.499l.107.124c.185-.077.185.047.092.11-.092.062-.03.343-.03.343l-.077.078v.125l-.093.062v.171c-.153-.077-.338-.046-.384 0-.138-.093-.43-.062-.43.016.092.125-.108.156-.108.156l-.108.125c.078.156-.076.172-.076.172v.296l-.185.172.016.405c0 .11.23.125.276.063.046-.063.231.125.231.125h.138l.031-.281-.092-.047v-.453l.153-.171c.185-.063.123.406.123.452.016.172.092.156.17.125.153-.062.03.172-.093.156-.123-.015-.046.156-.046.156l.077.031-.138.11-.123.14-.154-.047-.184-.015-.062-.11-.108-.015-.015.218-.077.094-.184.187c.246 0-.031.171-.093.171.139.047-.015.188-.368.079v.109l-.123.015.107.125.123.016-.046.265c0 .203-.507.062-.553.015l-.016.281-.092.016.015.187-.015.265.169-.03v.108l.415.016.6-.64.353-.078c.03-.156.184.032.184.032.154-.016.185.093.185.093l.2.031c.169.047.067.064.077.125.015.094.092.063.092.063l.03-.203.093.015-.092-.109-.17-.078-.184-.078c-.123-.171.03-.14.154-.125h.2s.23.312.23.39c0 .079.108.094.108.094l.138-.016.046.11h.139l.046.093h.277l.015-.14-.262-.047-.015-.156-.184-.047c-.062-.265.046-.343.123-.218l.092.015-.03-.234.107-.031-.031-.328-.092-.03v-.11l.384.016c-.03-.203.015-.297.015-.297h.108l.015.078.47.045.333-.382c-.017-.029.034-.047-.003-.084-.046-.047-.108 0-.185-.047-.077-.046 0-.312-.015-.374-.015-.063.262-.156.215-.016-.046.14 0 .203 0 .203.2-.187.37.016.354.063-.016.046.107.093.184.046.077-.046.17.14.139.234s-.308.078-.323-.015c-.016-.094-.062-.063-.092-.016-.031.047-.17.078-.246.031a.074.074 0 0 1-.028-.025l-.332.382.021.002c.185.11.093.25.031.28-.061.032-.17.032-.17.032l-.03.063-.4.03-.03.157c-.2-.032-.277.187-.23.296.046.109 0 .203 0 .203l.168.078.215-.062c.031-.157.17-.188.293-.281.122-.094.323.171.26.296-.06.125-.06.171-.06.171l.015.141-.154.062-.123.063-.016.078h-.414l-.077.078-.2.016-.062.093-.138.016s-.23.11-.138.234c.092.125-.384.11-.492-.063-.031.156-.2.016-.2.016l-.17-.047-.014-.234c-.031-.156-.323-.156-.308-.047.016.11-.553.047-.553.047l-.185.09-.17.098-.014.077-.277.032-.123.062-.046-.094h-.123l-.123.172c-.323.016-.63.203-.6.281.031.078-.122.156-.122.156l-.139.047-.092.14-.184.063-.031.327-.092.063v.14l-.108.031v.078l-.154.016.092.234.124.062c.215.031.122.297.122.297l.123.015.062.172.123.25c.046.187.184.14.246.124.061-.015.123.188.123.188l.614.015s-.03.063.078.094c.107.03.814.062.845.016-.03-.141.384-.172.553-.047.17.124.4.047.4.047l.23.28.155.343.26.078.185.047.062.265.138.016.046.172c.17.124-.046.39-.046.39v.343l.123.062-.016.125.2.203.23.016.585.624.461.14.077.25.123-.016.092-.078.37-.016.184-.171.2-.031 1.706-1.451-.154-.094v-.343c.277-.203.292-.562.03-.593-.198-.024-.107-.234.078-.265l.107-.047v-.14l.354-.328v-.25l-.769-.64c-.338-.124 0-.873.23-.857.231.015-.015-1.155-.015-1.155l-.123-.062.031-.375h-.169l-.277.36-.076.249c-.031.328-.984.265-1.03.218-.047-.047-.37-.187-.37-.187s-.245-.203-.291-.14c-.047.062-.262-.078-.262-.031 0 .046-.2-.11-.2-.11l-.307-.109.231-.047-.046-.187.4.203c.045.062.245.047.245.047l.061.078s.124-.016.2.078c.077.093.477.015.477.015l.108.094.169.062.476.016.016-.296.092-.094-.015-.187.107-.094v-.156l.092-.03.016-.344.076-.016v-.748l-.23-.219c-.015.078-.261.078-.261.078s-.062.11-.108.11.062.14.03.233c-.03.094-.153.094-.153.094l-.23.062-.062.078h-.246l-.03-.203.276-.078.154-.077.076-.157c.016-.155.2-.14.2-.14s.354-.297.37-.437c.015-.14.138-.53.353-.53h.4c.153-.063.107-.265.107-.265l.2-.032.03.11s.278.03.308-.016c.031-.047.092-.156.17-.11.076.048.322-.108.322-.108.015-.11.4-.063.4-.063l.046-.14s-.261-.359-.308-.359c-.046 0-.292-.219-.322-.14-.246-.063-.23-.406-.23-.406l-.093-.218c0-.125-.23-.39-.277-.36-.23-.17-.061-.374 0-.39.062-.015.216-.233.216-.233l.076-.219.261-.078.031-.202-.138-.016s.154-.28.23-.28c.078 0 .585 0 .63-.032.047-.031.139-.28.139-.328 0-.046.123-.062.17-.078.045-.015.153-.14.184-.203.03-.062-.077-.453-.139-.39z"/>
    <path fill="#D1D4D7" d="M27.638 27.226c.023-.023.046.07.092.058.046-.011.07.082.023.082-.046 0-.046.059-.046.082 0 .024 0 .082-.035.117-.034.035-.069.012-.115-.012-.046-.023-.069-.023-.127-.023-.057 0-.011.094-.011.094s-.243-.012-.196-.047c.046-.035.092-.047.058-.07-.035-.024 0-.047 0-.094s.115-.023.08-.058c-.034-.036 0-.171.058-.094l.034-.082c-.034-.035-.011-.047-.08-.07-.07-.024-.012-.164-.012-.164l.012-.094c.023-.116.253-.128.265-.023.011.105 0 .175 0 .175l.07.024s-.013.07-.07.07c-.058 0 0 .035-.035.07l.035.059zM26.877 27.343c.035-.07.115-.374.208-.28.091.093.15 0 .15 0s.046.047.022.14c-.023.094-.046.187-.104.2-.057.01-.103.046-.172.058-.07.011-.104-.117-.104-.117z"/>
</svg>
